<?xml version="1.0" encoding="UTF-8" standalone="no"?>
<svg width="46px" height="41px" viewBox="0 0 46 41" version="1.1" xmlns="http://www.w3.org/2000/svg" xmlns:xlink="http://www.w3.org/1999/xlink" xmlns:sketch="http://www.bohemiancoding.com/sketch/ns">
    <!-- Generator: Sketch 3.0.3 (7891) - http://www.bohemiancoding.com/sketch -->
    <title>buckets</title>
    <desc>Created with Sketch.</desc>
    <defs></defs>
    <g id="Page-1" stroke="none" stroke-width="1" fill="none" fill-rule="evenodd" sketch:type="MSPage">
        <g id="Final" sketch:type="MSArtboardGroup" transform="translate(-697.000000, -492.000000)">
            <g id="buckets" sketch:type="MSLayerGroup" transform="translate(697.000000, 492.000000)">
                <ellipse id="shadow" fill="#F3EEEE" sketch:type="MSShapeGroup" cx="19.1150442" cy="36.5" rx="19.1150442" ry="4.5"></ellipse>
                <g id="bucket" transform="translate(5.973451, 0.000000)" sketch:type="MSShapeGroup">
                    <path d="M0.995575221,5.2 C0.995575221,5.2 3.96366366,31.3101532 4.41106769,33.5763555 C4.85847172,35.8425578 5.42180154,36.4929687 7.33595046,37.3154297 C9.74069849,38.1294922 12.9954404,39.1965336 18.4858217,39.2098138 C24.0399579,39.1965336 27.2946997,38.1294922 29.6994478,37.3154297 C31.6135967,36.4929687 32.3159439,34.9597656 32.6243305,33.5763555 C32.9327172,31.8193126 36.039823,5.2 36.039823,5.2" id="base" stroke="#4A4A4A" stroke-width="2" stroke-linecap="round" stroke-linejoin="round" fill="#FFFFFF"></path>
                    <path d="M37.0353982,5.1 C37.0353982,2.28334778 28.7447419,0 18.5176991,0 C8.29065629,0 -2.34479103e-13,2.28334778 -2.34479103e-13,5.1 C-2.34479103e-13,7.91665222 8.29065629,10.2 18.5176991,10.2 C28.7447419,10.2 37.0353982,7.91665222 37.0353982,5.1 Z M5.95476033,6.77803714 C4.44912311,6.3633663 3.28010227,5.88679893 2.54654099,5.4091423 C2.25908393,5.22196535 2.07111728,5.05552506 1.9815963,4.93503825 C1.97588634,4.92735317 2,4.9927479 2,5.1 C2,5.2072521 1.97588634,5.27264683 1.9815963,5.26496175 C2.07111728,5.14447494 2.25908393,4.97803465 2.54654099,4.7908577 C3.28010227,4.31320107 4.44912311,3.8366337 5.95476033,3.42196286 C9.21872418,2.52302744 13.7086336,2 18.5176991,2 C23.3267647,2 27.816674,2.52302744 31.0806379,3.42196286 C32.5862751,3.8366337 33.755296,4.31320107 34.4888572,4.7908577 C34.7763143,4.97803465 34.9642809,5.14447494 35.0538019,5.26496175 C35.0595119,5.27264683 35.0353982,5.2072521 35.0353982,5.1 C35.0353982,4.9927479 35.0595119,4.92735317 35.0538019,4.93503825 C34.9642809,5.05552506 34.7763143,5.22196535 34.4888572,5.4091423 C33.755296,5.88679893 32.5862751,6.3633663 31.0806379,6.77803714 C27.816674,7.67697256 23.3267647,8.2 18.5176991,8.2 C13.7086336,8.2 9.21872418,7.67697256 5.95476033,6.77803714 Z" id="opening" fill="#4A4A4A"></path>
                </g>
                <path d="M8.07549969,9.6 L3.79452623,9.6 C3.79452623,9.6 2.20238367,32.0734375 24.3150427,32.0734375 C46.5879271,32.0734375 44.9957845,9.6 44.9957845,9.6 L40.7148111,9.6" id="handle" stroke="#4A4A4A" stroke-width="1.8" stroke-linejoin="round" sketch:type="MSShapeGroup"></path>
                <g id="eyes" transform="translate(17.123894, 19.600000)" fill="#4A4A4A" sketch:type="MSShapeGroup">
                    <ellipse id="left" cx="1.49336283" cy="1.5" rx="1.49336283" ry="1.5"></ellipse>
                    <ellipse id="right" cx="13.4402655" cy="1.5" rx="1.49336283" ry="1.5"></ellipse>
                </g>
            </g>
        </g>
    </g>
</svg>