<?xml version="1.0" encoding="utf-8"?>
<!-- Generator: Adobe Illustrator 17.1.0, SVG Export Plug-In . SVG Version: 6.00 Build 0)  -->
<!DOCTYPE svg PUBLIC "-//W3C//DTD SVG 1.1//EN" "http://www.w3.org/Graphics/SVG/1.1/DTD/svg11.dtd">
<svg version="1.1" id="Layer_1" xmlns="http://www.w3.org/2000/svg" xmlns:xlink="http://www.w3.org/1999/xlink" x="0px" y="0px"
	 viewBox="-0.9 186.6 401.8 27" enable-background="new -0.9 186.6 401.8 27" xml:space="preserve">
<g>
	<polygon fill="#E5E5E5" points="295.2,213.6 277.9,194.1 260.4,213.6 243.2,194.2 225.9,213.6 208.6,194.2 191.4,213.6 
		173.9,194.1 156.6,213.6 139.3,194.2 122.1,213.6 104.8,194.2 87.6,213.6 70,194.1 52.8,213.6 35.5,194.2 18.2,213.6 -0.9,192.1 
		2.8,188.7 18.2,206.1 35.5,186.6 52.8,206.1 70,186.6 87.5,206.1 104.8,186.6 122.1,206.1 139.3,186.6 156.6,206.1 173.8,186.6 
		191.4,206.1 208.6,186.6 225.9,206.1 243.2,186.6 260.4,206.1 277.9,186.6 295.2,206.1 312.5,186.6 329.7,206.1 347,186.6 
		364.5,206.1 381.8,186.6 400.9,208.2 397.2,211.5 381.8,194.2 364.5,213.6 347,194.1 329.7,213.6 312.5,194.2 	"/>
</g>
</svg>
